<svg xmlns="http://www.w3.org/2000/svg" fill="none" width="30" height="30" viewBox="0 0 30 30">
  <path fill="currentColor" fill-rule="evenodd" d="M3.5 15a12 12 0 1 0 24 0 12 12 0 0 0-24 0Zm16.83 2.22c.6.27 1.22.56 1.23.53l.1.04c.27.12.45.2.52.33.09.15.09.8-.2 1.57-.27.78-1.58 1.47-2.21 1.57-.57.08-1.28.12-2.07-.13-2.9-1-4.5-1.72-7.48-5.63-1.52-2.14-1.97-4.15-.2-6.1.41-.43.88-.44 1.51-.38h.06c.2-.01.44-.02.68.56l.5 1.2.51 1.23c.08.16.14.34.03.57-.26.5-.53.79-.73 1.01-.27.3-.42.47-.23.79.19.33.84 1.4 1.82 2.28a8.44 8.44 0 0 0 2.43 1.53l.21.1c.33.15.52.13.72-.08.19-.22.82-.96 1.03-1.28.17-.25.32-.32.8-.15l.97.44Z" clip-rule="evenodd"/>
</svg>
